<svg id="图层_1" data-name="图层 1" xmlns="http://www.w3.org/2000/svg" viewBox="0 0 60 60">
  <defs>
    <style>
      .cls-1 {
        opacity: 0.5;
      }
    </style>
  </defs>
  <title>ifushion_homepage</title>
  <g>
    <circle class="cls-1" cx="30.64" cy="36.61" r="23.39"/>
    <path d="M26,43.75a12.18,12.18,0,1,1,3.3-23.91l-.81,2.89a9.17,9.17,0,1,0,6.35,6.35l2.89-.81A12.19,12.19,0,0,1,26,43.75Z"/>
    <path d="M26,56.49a24.92,24.92,0,1,1,6.52-49l-.78,2.9A21.9,21.9,0,1,0,47.49,27.5l2.95-.55A24.94,24.94,0,0,1,26,56.49Z"/>
    <path d="M59,11.91,48,11,47.07,0,43.15,4h0l-7.93,7h0v9.78l-10.95,10,2.1,3L38.23,22.84H48L56,14.9h0ZM45.73,20.35l-7.51-.08-.12-7.53,6.43-6.14.29,7.49,7.21.63Z"/>
  </g>
</svg>
