<svg id="图层_1" data-name="图层 1" xmlns="http://www.w3.org/2000/svg" viewBox="0 0 60 60">
  <defs>
    <style>
      .cls-1 {
        opacity: 0.5;
      }
    </style>
  </defs>
  <title>ifushion_homepage</title>
  <g>
    <path d="M39.43,26.39H17.08a1.22,1.22,0,0,0-1.24,1.19v.59a1.22,1.22,0,0,0,1.24,1.19H39.43a1.22,1.22,0,0,0,1.24-1.19v-.59a1.21,1.21,0,0,0-1.24-1.19Z"/>
    <path d="M27.72,37.07H17a1.19,1.19,0,0,0-1.19,1.19v.6A1.19,1.19,0,0,0,17,40.05h10.7a1.19,1.19,0,0,0,1.19-1.19v-.6a1.19,1.19,0,0,0-1.19-1.19Z"/>
    <polygon class="cls-1" points="8.37 5.97 8.37 60 42.63 60 44.86 58.85 56.73 48.01 58.05 45.6 58.05 5.97 8.37 5.97"/>
    <path d="M38,57H2V0h52.6V41.46l-1.62,3L40.74,55.55ZM4.88,54H37.31l1.74-.9L50.61,42.58l1-1.87V2.93H4.88Z"/>
    <path d="M49.81,43.13s0-.06,0-.09h0Z"/>
    <path d="M39.43,15.1H17.08a1.22,1.22,0,0,0-1.24,1.19v.6a1.22,1.22,0,0,0,1.24,1.19H39.43a1.22,1.22,0,0,0,1.24-1.19v-.6a1.22,1.22,0,0,0-1.24-1.19Z"/>
  </g>
</svg>
