<svg id="图层_1" data-name="图层 1" xmlns="http://www.w3.org/2000/svg" viewBox="0 0 60 60">
  <defs>
    <style>
      .cls-1 {
        opacity: 0.5;
      }
    </style>
  </defs>
  <title>ifushion_homepage</title>
  <g>
    <path class="cls-1" d="M44,10.1H41.34c-.79,2.39-4,4.19-7.8,4.19s-7-1.79-7.8-4.19H21.2a4.36,4.36,0,0,0-3.51,1.84L7.14,28.47l3.76,2.33s6,3.87,6.42,4.15V55.38l5.33,0H49.3V34.94c.67-.34,6.42-4.15,6.42-4.15l4-2.5L48.92,11.93a4.36,4.36,0,0,0-3.51-1.84Z"/>
    <path d="M46,52.9l-35,0V31.76l-5.73-3.7-5-3.11L11.63,7.13A5.9,5.9,0,0,1,16.4,4.6H22l.34,1c.5,1.53,2.91,3.16,6.38,3.16s5.87-1.63,6.38-3.16l.34-1h5.17a5.87,5.87,0,0,1,4.72,2.46L57,24.75l-5.34,3.31c-1.06.7-4.16,2.75-5.71,3.72Zm-32-3,3.84,0H43V30l.82-.42c.41-.22,3.51-2.24,6.27-4.06l2.75-1.71-10-15.07A2.84,2.84,0,0,0,40.62,7.6H37.5c-1.44,2.51-4.86,4.19-8.77,4.19S21.41,10.11,20,7.6H16.4a2.86,2.86,0,0,0-2.29,1.21L4.43,24l2.47,1.52c.64.41,6.05,3.9,6.47,4.18l.66.45Z"/>
    <circle cx="28.03" cy="18.6" r="2.33"/>
    <circle cx="28.03" cy="28.6" r="2.33"/>
  </g>
</svg>
