<svg id="图层_1" data-name="图层 1" xmlns="http://www.w3.org/2000/svg" viewBox="0 0 60 60">
  <defs>
    <style>
      .cls-1 {
        opacity: 0.5;
      }
    </style>
  </defs>
  <title>ifushion_homepage</title>
  <g>
    <path class="cls-1" d="M60,33a2.46,2.46,0,0,0-.07-.63,3.25,3.25,0,0,0-.12-.61l0-.12a1.8,1.8,0,0,0-.09-.24C54.69,20.5,44,13.17,33,13.17S11.28,20.49,6.32,31.33a1.7,1.7,0,0,0-.13.33l0,.09a1.28,1.28,0,0,0-.09.44c0,.21-.09.63-.09.63a1.64,1.64,0,0,0,0,.35s0,.37.06.44A2.75,2.75,0,0,0,6.1,34h0a1.8,1.8,0,0,0,.11.34,2.12,2.12,0,0,0,.08.23C11.28,45.47,22,52.8,33,52.8a27.65,27.65,0,0,0,14.6-4.36,32,32,0,0,0,12-13.74,2,2,0,0,0,.16-.39l0-.1a1.51,1.51,0,0,0,.1-.47h0A3.62,3.62,0,0,0,60,33Z"/>
    <path d="M28.48,49.76c-11.54,0-22.8-7.67-28-19.08,0-.1-.09-.21-.12-.33a3.29,3.29,0,0,1-.17-.54,5,5,0,0,1-.09-.58c0-.19-.06-.4-.06-.4a3.11,3.11,0,0,1,0-.65s0-.36.08-.64a3,3,0,0,1,.17-.77l0-.1a3.22,3.22,0,0,1,.21-.52c5.18-11.31,16.43-19,28-19s22.8,7.67,28,19.08a3,3,0,0,1,.14.35l.05.14a4.71,4.71,0,0,1,.18.84,4.48,4.48,0,0,1,.09.88,4.75,4.75,0,0,1-.09.9,3,3,0,0,1-.17.79l0,.13a3.28,3.28,0,0,1-.22.53A33.33,33.33,0,0,1,53,36.63q-.61.83-1.26,1.62l-2.25-1.87q.6-.72,1.15-1.47a30.47,30.47,0,0,0,3.13-5.32l0-.09a.48.48,0,0,0,0-.1l.1-.45a2.3,2.3,0,0,0,.06-.46c0-.06,0-.12,0-.17l0-.08L54,28a1.74,1.74,0,0,0-.05-.27l-.05-.13c-4.78-10.46-15-17.44-25.38-17.44s-20.6,7-25.33,17.3L3,27.77c.08-.53,0,.14,0,.14l-.06.34,0,.2s0,.25,0,.35L3,29V29s0,.1,0,.16l.08.23c4.77,10.44,15,17.42,25.37,17.42a26.14,26.14,0,0,0,13.83-4.14,30,30,0,0,0,2.52-1.77l1.8,2.31a32.83,32.83,0,0,1-2.77,1.94A29.06,29.06,0,0,1,28.48,49.76Z"/>
    <path d="M28.48,39A10.47,10.47,0,1,1,39,28.48,10.48,10.48,0,0,1,28.48,39Zm0-18A7.54,7.54,0,1,0,36,28.48,7.55,7.55,0,0,0,28.48,20.94Z"/>
  </g>
</svg>
